HIERARCHY
ROOT Hips
{
 OFFSET 0.000000 0.000000 0.000000
 CHANNELS 6 Xposition Yposition Zposition Yrotation Xrotation Zrotation
 JOINT Chest
 {
  OFFSET 0.000000 9.588913 -0.003946
  CHANNELS 3 Yrotation Xrotation Zrotation
  JOINT Chest2
  {
   OFFSET 0.000000 9.541882 0.008053
   CHANNELS 3 Yrotation Xrotation Zrotation
   JOINT Chest3
   {
    OFFSET 0.000000 9.501360 0.000000
    CHANNELS 3 Yrotation Xrotation Zrotation
    JOINT Chest4
    {
     OFFSET 0.000000 9.491660 0.000000
     CHANNELS 3 Yrotation Xrotation Zrotation
     JOINT Neck
     {
      OFFSET 0.000000 14.331917 0.000000
      CHANNELS 3 Yrotation Xrotation Zrotation
      JOINT Head
      {
       OFFSET 0.000000 8.884799 0.017034
       CHANNELS 3 Yrotation Xrotation Zrotation
       End Site
       {
        OFFSET 0.000000 16.896195 0.008993
       }
      }
     }
     JOINT RightCollar
     {
      OFFSET -2.923010 9.499495 0.000000
      CHANNELS 3 Yrotation Xrotation Zrotation
      JOINT RightShoulder
      {
       OFFSET -13.795216 0.000000 0.000000
       CHANNELS 3 Yrotation Xrotation Zrotation
       JOINT RightElbow
       {
        OFFSET -30.272209 0.000000 0.000000
        CHANNELS 3 Yrotation Xrotation Zrotation
        JOINT RightWrist
        {
         OFFSET -24.478199 0.000000 0.000000
         CHANNELS 3 Yrotation Xrotation Zrotation
         End Site
         {
          OFFSET -18.090752 0.000000 0.000000
         }
        }
       }
      }
     }
     JOINT LeftCollar
     {
      OFFSET 2.923010 9.499495 0.000000
      CHANNELS 3 Yrotation Xrotation Zrotation
      JOINT LeftShoulder
      {
       OFFSET 13.795216 0.000000 0.000000
       CHANNELS 3 Yrotation Xrotation Zrotation
       JOINT LeftElbow
       {
        OFFSET 30.272209 0.000000 0.000000
        CHANNELS 3 Yrotation Xrotation Zrotation
        JOINT LeftWrist
        {
         OFFSET 24.478199 0.000000 0.000000
         CHANNELS 3 Yrotation Xrotation Zrotation
         End Site
         {
          OFFSET 18.090752 0.000000 0.000000
         }
        }
       }
      }
     }
    }
   }
  }
 }
 JOINT RightHip
 {
  OFFSET -7.826875 0.019532 0.001973
  CHANNELS 3 Yrotation Xrotation Zrotation
  JOINT RightKnee
  {
   OFFSET 0.000000 -40.546152 -0.001885
   CHANNELS 3 Yrotation Xrotation Zrotation
   JOINT RightAnkle
   {
    OFFSET 0.000000 -39.417092 -0.003189
    CHANNELS 3 Yrotation Xrotation Zrotation
    JOINT RightToe
    {
     OFFSET 0.000000 -7.579396 17.243563
     CHANNELS 3 Yrotation Xrotation Zrotation
     End Site
     {
      OFFSET 0.000000 -1.500329 6.694466
     }
    }
   }
  }
 }
 JOINT LeftHip
 {
  OFFSET 7.826875 0.019532 0.001973
  CHANNELS 3 Yrotation Xrotation Zrotation
  JOINT LeftKnee
  {
   OFFSET 0.000000 -40.546152 -0.001885
   CHANNELS 3 Yrotation Xrotation Zrotation
   JOINT LeftAnkle
   {
    OFFSET 0.000000 -39.417092 -0.003189
    CHANNELS 3 Yrotation Xrotation Zrotation
    JOINT LeftToe
    {
     OFFSET 0.000000 -7.579396 17.243563
     CHANNELS 3 Yrotation Xrotation Zrotation
     End Site
     {
      OFFSET 0.000000 -1.500329 6.694466
     }
    }
   }
  }
 }
}
MOTION
Frames: 8
Frame Time: 0.008333
0.000000 87.345680 0.000000 0.000000 -5.767889 0.000000 0.000000 11.653876 0.000000 0.000000 -5.885988 0.000000 0.000000 -0.000000 0.000000 0.000000 -0.000000 0.000000 0.000000 12.528808 0.000000 0.000000 0.711711 0.000000 0.000000 -0.000000 0.000000 0.000000 -0.000000 0.000000 2.309063 -0.000000 0.000000 -2.309063 -0.000000 -0.000000 0.000000 -0.000000 0.000000 0.000000 0.000000 0.000000 -2.309063 0.000000 0.000000 2.309063 -0.000000 0.000000 0.000000 8.520374 0.000000 0.000000 1.905768 0.000000 -0.000000 -4.658254 0.000000 0.000000 -0.000000 0.000000 0.000000 8.520374 0.000000 0.000000 1.905768 0.000000 -0.000000 -4.658254 0.000000 0.000000 -0.000000 0.000000
15.802281 89.385427 6.529781 17.243791 -6.260796 0.162202 2.237971 4.936976 0.020756 0.070652 0.158130 0.012751 0.125166 0.280073 0.022719 2.136496 4.729142 0.467554 -1.516808 13.634850 -1.895770 -2.115714 -10.482978 -2.980557 -0.767022 0.399869 -1.816175 -1.484019 -3.169554 90.232319 -0.038899 -13.476602 0.792346 2.639250 -19.268077 1.894679 -6.130181 -0.223380 -0.494154 4.692184 -4.435159 -89.649679 -1.923560 8.323753 2.316349 12.599876 7.249943 1.338271 -19.421076 4.691537 -3.908981 17.002493 10.654666 -0.530851 3.176488 -12.343982 -14.003841 -0.109232 -0.525671 -0.027275 10.929332 6.197087 -0.074928 2.554929 2.740266 0.097999 7.158259 -15.811965 -2.080707 0.042258 0.631556 0.014617
15.798638 89.385844 6.531363 17.259842 -6.251742 0.167474 2.246671 4.934722 0.026425 0.070955 0.158081 0.012702 0.125700 0.279984 0.022633 2.145013 4.726592 0.466301 -1.516180 13.633713 -1.895420 -2.114654 -10.485082 -2.980143 -0.765530 0.413407 -1.807748 -1.485899 -3.164197 90.218283 -0.022759 -13.480586 0.790119 2.641352 -19.272328 1.895080 -6.098985 -0.225103 -0.445496 4.737273 -4.451161 -89.577416 -2.022027 8.382035 2.222329 13.020032 7.564888 0.788207 -19.435184 4.667087 -3.907545 16.981798 10.686523 -0.526619 3.187935 -12.349343 -14.025654 -0.110459 -0.532796 -0.020319 10.915833 6.176550 -0.085378 2.559548 2.760926 0.105362 7.158362 -15.817974 -2.081788 0.044020 0.627758 0.011408
15.793750 89.386876 6.533654 17.275261 -6.241860 0.171420 2.257723 4.931704 0.032716 0.071348 0.158037 0.012653 0.126395 0.279904 0.022545 2.155977 4.723584 0.465057 -1.515619 13.632443 -1.895106 -2.113705 -10.487434 -2.979770 -0.766183 0.427816 -1.797155 -1.489676 -3.159111 90.204052 -0.005996 -13.485761 0.787824 2.643598 -19.273878 1.894462 -6.073739 -0.228063 -0.401827 4.751026 -4.465598 -89.487493 -2.111392 8.409494 2.120213 13.373727 7.833197 0.251531 -19.446343 4.644922 -3.904874 16.958916 10.713253 -0.520706 3.199268 -12.348809 -14.052823 -0.111243 -0.538277 -0.011714 10.898758 6.154846 -0.093958 2.566958 2.781882 0.114893 7.154744 -15.822797 -2.086001 0.044808 0.623093 0.009315
15.787648 89.388712 6.536531 17.289244 -6.230509 0.173843 2.270618 4.925676 0.040123 0.071782 0.157830 0.012576 0.127164 0.279538 0.022409 2.168966 4.717592 0.463178 -1.513712 13.632973 -1.894601 -2.110309 -10.486430 -2.979571 -0.771747 0.446795 -1.783676 -1.492287 -3.153510 90.189203 0.010219 -13.489529 0.784972 2.645888 -19.270552 1.889476 -6.055066 -0.229477 -0.365007 4.739967 -4.475955 -89.379248 -2.200671 8.411271 2.019000 13.657735 8.047390 -0.258973 -19.456183 4.626981 -3.901851 16.936423 10.728866 -0.513207 3.212211 -12.339615 -14.085820 -0.110678 -0.541403 -0.001073 10.884456 6.128637 -0.102249 2.571392 2.808169 0.130172 7.151224 -15.828037 -2.095661 0.044100 0.616951 0.008217
15.780498 89.391536 6.540386 17.301564 -6.220186 0.173951 2.284094 4.917574 0.049481 0.072229 0.157510 0.012493 0.127958 0.278974 0.022263 2.182993 4.709570 0.461227 -1.509122 13.635564 -1.893960 -2.101928 -10.481568 -2.980172 -0.779259 0.470123 -1.768299 -1.492224 -3.146948 90.172917 0.024425 -13.493052 0.778107 2.647710 -19.262636 1.883694 -6.039333 -0.229319 -0.336459 4.706890 -4.480819 -89.256873 -2.294367 8.380555 1.923463 13.879434 8.227391 -0.734455 -19.469174 4.617328 -3.899025 16.910628 10.730290 -0.505528 3.232925 -12.320041 -14.125646 -0.109066 -0.542471 0.012017 10.876742 6.099280 -0.108478 2.572889 2.842115 0.148983 7.148302 -15.834990 -2.107052 0.042853 0.609047 0.006162
15.772383 89.395402 6.545402 17.314757 -6.211852 0.170289 2.295410 4.909170 0.060373 0.072614 0.157157 0.012432 0.128641 0.278351 0.022156 2.195513 4.701295 0.459935 -1.500561 13.639950 -1.892461 -2.086410 -10.473329 -2.980721 -0.781240 0.492319 -1.749667 -1.494217 -3.137628 90.154786 0.033252 -13.491784 0.766553 2.647606 -19.255719 1.881070 -6.019935 -0.226141 -0.313585 4.653263 -4.483288 -89.129604 -2.386941 8.316506 1.837443 14.036586 8.375227 -1.162671 -19.491934 4.617572 -3.893682 16.877863 10.718263 -0.502759 3.266060 -12.290017 -14.170958 -0.107791 -0.542348 0.027362 10.872588 6.067812 -0.109826 2.573659 2.883111 0.168139 7.144205 -15.844019 -2.117962 0.042102 0.599903 0.003105
15.763653 89.400235 6.551563 17.329937 -6.205625 0.163260 2.302600 4.901499 0.072342 0.072851 0.156787 0.012434 0.129064 0.277702 0.022160 2.204166 4.693520 0.460459 -1.487178 13.646673 -1.889842 -2.062259 -10.460696 -2.981054 -0.775138 0.511829 -1.727988 -1.496099 -3.126900 90.133949 0.034167 -13.486533 0.751629 2.644864 -19.252699 1.881703 -5.991828 -0.216700 -0.297453 4.591218 -4.490234 -89.002413 -2.474473 8.220366 1.763434 14.134739 8.493717 -1.544473 -19.527389 4.627345 -3.885519 16.841190 10.694232 -0.507710 3.309982 -12.251529 -14.215771 -0.107565 -0.540861 0.041295 10.870621 6.035674 -0.105968 2.572138 2.928908 0.185996 7.140115 -15.854458 -2.129408 0.041814 0.589758 0.000791
